<svg width="390" height="396" viewBox="0 0 390 396" fill="none" xmlns="http://www.w3.org/2000/svg">
<path d="M115.884 392.213C91.8843 373.013 105.884 315.546 115.884 289.213L85.8843 307.213C41.0843 326.413 12.5509 303.213 3.88428 289.213C-8.11572 246.813 20.2176 209.546 35.8843 196.213C52.6843 182.613 120.884 175.213 152.884 173.213L141.884 136.213C138.684 106.613 158.551 61.2129 168.884 42.2129C180.884 -3.38714 215.884 -2.12048 231.884 4.21286C293.484 60.2129 270.218 122.88 250.884 147.213C275.218 137.213 331.084 121.013 359.884 136.213C388.684 151.413 390.551 182.546 387.884 196.213C378.284 214.613 341.218 231.213 323.884 237.213C339.884 246.013 354.551 262.88 359.884 270.213C388.684 311.813 356.551 345.546 336.884 357.213C304.084 368.413 253.218 335.88 231.884 318.213C198.284 396.613 140.551 400.213 115.884 392.213Z" fill="#929DFF" stroke="#929DFF"/>
<path d="M179 206C185.4 182.8 217 187 232 192C259 234 238 215 239 221C240 227 232 244 225 251C219.4 256.6 209.333 253.333 205 251C198.6 259 185 254.333 179 251C167.8 243.8 174.333 232.667 179 228C174 220 171 235 179 206Z" fill="#FED984"/>
</svg>
