<svg width="90" height="90" viewBox="0 0 90 90" fill="none" xmlns="http://www.w3.org/2000/svg">
<circle cx="43.3851" cy="46.3851" r="43.3851" fill="#A387D7"/>
<g filter="url(#filter0_f_1_121)">
<path d="M28.7929 37.8732C23.0046 5.16577 43.7461 4.28968 54.8404 7.94006C57.011 7.94006 64.9699 10.8604 75.823 22.5416C84.5055 31.8866 83.782 48.0943 78.7172 54.665C73.6524 61.2357 34.5812 70.5807 28.7929 37.8732Z" fill="#FDFCFE" fill-opacity="0.31"/>
</g>
<g filter="url(#filter1_f_1_121)">
<path d="M23.8879 40.3112C16.9971 1.37369 38.5274 4.23537 51.7348 8.58107C54.3189 8.58107 66.3314 7.71013 76.2946 23.8673C83.7593 35.9726 85.0608 52.8928 79.74 62.1094C74.4192 71.3261 30.7788 79.2486 23.8879 40.3112Z" fill="#FDFCFE" fill-opacity="0.31"/>
</g>
<g filter="url(#filter2_f_1_121)">
<path d="M34.708 34.9934C29.8385 7.99674 47.2877 7.27361 56.621 10.2866C58.447 10.2866 65.1427 12.697 74.273 22.3387C81.5774 30.052 80.9687 43.4298 76.7078 48.8532C72.447 54.2767 39.5776 61.99 34.708 34.9934Z" fill="#FDFCFE" fill-opacity="0.7"/>
</g>
<g filter="url(#filter3_f_1_121)">
<path d="M44.011 30.338C40.5402 10.9015 52.9773 10.3809 59.6296 12.5501C60.9312 12.5501 65.7036 14.2855 72.2113 21.2271C77.4175 26.7804 76.9837 36.4119 73.9467 40.3166C70.9098 44.2212 47.4818 49.7745 44.011 30.338Z" fill="#FDFCFE"/>
<path d="M44.011 30.338C40.5402 10.9015 52.9773 10.3809 59.6296 12.5501C60.9312 12.5501 65.7036 14.2855 72.2113 21.2271C77.4175 26.7804 76.9837 36.4119 73.9467 40.3166C70.9098 44.2212 47.4818 49.7745 44.011 30.338Z" stroke="#FDFCFE"/>
</g>
<g filter="url(#filter4_f_1_121)">
<path d="M6.53353 35.9727C6.96739 50.1451 15.7312 79.7916 47.3155 84.9978C31.8415 87.3117 2.02149 80.746 6.53353 35.9727Z" fill="#F7F5FE"/>
</g>
<g filter="url(#filter5_f_1_121)">
<path d="M6.94165 32.5018C8.93587 47.2528 22.1264 82.3947 55.0991 83.6962C29.5019 91.0717 2.16926 68.0776 6.94165 32.5018Z" fill="#F7F5FE" fill-opacity="0.6"/>
</g>
<g filter="url(#filter6_f_1_121)">
<path d="M9.51575 23.8248C10.0634 40.2455 20.0003 75.061 59.8714 81.0931C36.8773 96.7117 -6.10286 65.9083 9.51575 23.8248Z" fill="#F7F5FE" fill-opacity="0.32"/>
</g>
<defs>
<filter id="filter0_f_1_121" x="21.6926" y="0.37081" width="66.8652" height="66.8652" filterUnits="userSpaceOnUse" color-interpolation-filters="sRGB">
<feFlood flood-opacity="0" result="BackgroundImageFix"/>
<feBlend mode="normal" in="SourceGraphic" in2="BackgroundImageFix" result="shape"/>
<feGaussianBlur stdDeviation="3.05" result="effect1_foregroundBlur_1_121"/>
</filter>
<filter id="filter1_f_1_121" x="16.4602" y="0.0574708" width="72.6165" height="75.7045" filterUnits="userSpaceOnUse" color-interpolation-filters="sRGB">
<feFlood flood-opacity="0" result="BackgroundImageFix"/>
<feBlend mode="normal" in="SourceGraphic" in2="BackgroundImageFix" result="shape"/>
<feGaussianBlur stdDeviation="3.05" result="effect1_foregroundBlur_1_121"/>
</filter>
<filter id="filter2_f_1_121" x="27.7665" y="2.97391" width="58.1882" height="57.3205" filterUnits="userSpaceOnUse" color-interpolation-filters="sRGB">
<feFlood flood-opacity="0" result="BackgroundImageFix"/>
<feBlend mode="normal" in="SourceGraphic" in2="BackgroundImageFix" result="shape"/>
<feGaussianBlur stdDeviation="3.05" result="effect1_foregroundBlur_1_121"/>
</filter>
<filter id="filter3_f_1_121" x="36.8121" y="5.07708" width="45.9776" height="45.6849" filterUnits="userSpaceOnUse" color-interpolation-filters="sRGB">
<feFlood flood-opacity="0" result="BackgroundImageFix"/>
<feBlend mode="normal" in="SourceGraphic" in2="BackgroundImageFix" result="shape"/>
<feGaussianBlur stdDeviation="3.05" result="effect1_foregroundBlur_1_121"/>
</filter>
<filter id="filter4_f_1_121" x="2.07391" y="31.9727" width="49.2416" height="57.4274" filterUnits="userSpaceOnUse" color-interpolation-filters="sRGB">
<feFlood flood-opacity="0" result="BackgroundImageFix"/>
<feBlend mode="normal" in="SourceGraphic" in2="BackgroundImageFix" result="shape"/>
<feGaussianBlur stdDeviation="2" result="effect1_foregroundBlur_1_121"/>
</filter>
<filter id="filter5_f_1_121" x="2.39481" y="28.5018" width="56.7043" height="60.5714" filterUnits="userSpaceOnUse" color-interpolation-filters="sRGB">
<feFlood flood-opacity="0" result="BackgroundImageFix"/>
<feBlend mode="normal" in="SourceGraphic" in2="BackgroundImageFix" result="shape"/>
<feGaussianBlur stdDeviation="2" result="effect1_foregroundBlur_1_121"/>
</filter>
<filter id="filter6_f_1_121" x="2.17697" y="19.8248" width="61.6944" height="69.3951" filterUnits="userSpaceOnUse" color-interpolation-filters="sRGB">
<feFlood flood-opacity="0" result="BackgroundImageFix"/>
<feBlend mode="normal" in="SourceGraphic" in2="BackgroundImageFix" result="shape"/>
<feGaussianBlur stdDeviation="2" result="effect1_foregroundBlur_1_121"/>
</filter>
</defs>
</svg>
