<svg width="148" height="136" viewBox="0 0 148 136" fill="none" xmlns="http://www.w3.org/2000/svg">
<path d="M15.6694 101.48C13.2679 103.657 18.5297 107.285 21.4608 108.827C40.1163 117.26 84.6902 117.411 104.645 116.432C130.506 90.6088 141.496 65.0419 143.759 55.4864C145.06 50.8976 143.567 47.3005 142.658 46.0756C143.949 40.4102 140.677 38.3558 138.879 38.0367C138.806 30.5003 133.626 28.4419 131.046 28.3548C130.414 18.6703 122.869 17.891 119.176 18.712C118.044 13.0701 110.137 11.9578 106.325 12.107C103.033 5.67849 96.1797 6.82168 93.1647 8.19684C89.88 2.57583 81.6917 4.83114 78.0082 6.66142C70.6809 0.541246 62.181 5.35683 58.8469 8.52964C43.9962 3.82834 38.5892 12.9882 37.742 18.1557C24.8068 16.6661 21.6795 27.2843 21.7328 32.7796C13.6633 33.3963 12.4036 42.2915 12.7825 46.6621C2.61971 53.4903 5.29226 60.7547 7.89889 63.5335C4.97729 67.5996 6.76856 74.1996 8.0294 76.9914C4.04944 82.952 7.57741 88.2118 9.83889 90.0966C7.99915 94.6905 12.9594 99.5999 15.6694 101.48Z" fill="#FED0C6" stroke="#ED8872" stroke-width="3"/>
<path d="M78.8972 125.435C80.2117 122.192 78.7154 118.259 77.803 116.697C82.6557 117.458 97.7689 116.84 104.719 116.436C103.066 119.481 89.0233 128.702 81.6606 132.811C74.2978 136.92 77.2541 129.489 78.8972 125.435Z" fill="#ED8872" stroke="#ED8872"/>
<path d="M129.14 101.959C125.809 100.889 123.749 97.2188 123.135 95.5176C120.608 99.7296 110.446 110.933 105.681 116.008C109.077 116.691 125.156 111.825 133.03 108.808C140.904 105.791 133.305 103.296 129.14 101.959Z" fill="#ED8872" stroke="#ED8872"/>
<g filter="url(#filter0_f_1_120)">
<path d="M38.2579 17.1462C41.444 31.8082 61.0958 72.9823 105.349 116.43" stroke="#ED8872" stroke-width="2"/>
<path d="M59.1431 8.53163C67.7976 29.0851 90.591 80.1661 105.009 116.097M105.009 116.097C105.593 92.6723 86.2054 32.3836 77.3784 5.66295M105.009 116.097C110.363 54.4019 98.3488 17.4607 92.6125 7.19762" stroke="#ED8872" stroke-width="2"/>
<path d="M105.857 12.7894C111.506 37.2976 119.773 87.6895 105.339 115.421M105.339 115.421C123.935 90.0045 122.133 40.4472 119.101 18.3811M105.339 115.421C126.153 96.6453 138.687 61.3728 142.352 46.0835" stroke="#ED8872" stroke-width="2"/>
<path d="M131.032 28.0233C128.875 49.7455 121.88 98.1226 105.009 116.097M105.009 116.097C124.047 98.3714 135.25 56.0929 139.239 37.3888M105.009 116.097C67.7985 101.346 33.7681 54.0411 22.1725 32.4522M105.009 116.097C50.1794 98.0083 20.6524 61.7019 13.5108 46.0293M105.009 116.097C58.1271 108.456 20.0127 77.1126 7.58395 62.6157M105.009 116.097C55.2061 114.151 18.8828 88.4802 7.71479 76.1074M105.009 116.097C53.102 120.378 18.0846 99.1699 7.83254 88.25M105.009 116.097C60.4092 120.577 25.9487 107.977 15.0618 101.336" stroke="#ED8872" stroke-width="2"/>
</g>
<g filter="url(#filter1_f_1_120)">
<g filter="url(#filter2_f_1_120)">
<path d="M46.9327 25.9113C46.8785 20.3286 57.8342 14.7325 63.1452 21.7614C68.1919 41.1688 80.6038 81.4497 91.3135 93.4482C91.7884 93.934 92.2475 94.398 92.6894 94.8393C92.2344 94.4308 91.7755 93.9658 91.3135 93.4482C78.1348 79.9667 52.8316 49.7473 46.9327 25.9113Z" fill="#FDFCFE"/>
</g>
<g filter="url(#filter3_f_1_120)">
<path d="M31.1278 40.3284C30.4174 35.9919 37.56 30.4434 42.1947 35.3312C48.1303 49.8764 61.8321 79.8541 70.9162 88.0183C71.3135 88.3444 71.6969 88.6552 72.0652 88.9502C71.6915 88.6822 71.3081 88.3706 70.9162 88.0183C59.8922 78.97 38.2043 58.2254 31.1278 40.3284Z" fill="#FDFCFE"/>
</g>
<g filter="url(#filter4_f_1_120)">
<path d="M21.8297 54.0256C20.5664 50.5751 25.1689 45.0424 29.5542 48.3992C36.5358 59.4794 52.0593 82.1118 60.4213 87.5324C60.7818 87.7441 61.1292 87.9453 61.4623 88.1356C61.1295 87.9681 60.782 87.7663 60.4213 87.5324C50.4152 81.6576 30.2449 67.6906 21.8297 54.0256Z" fill="#FDFCFE"/>
</g>
<g filter="url(#filter5_f_1_120)">
<path d="M15.4775 68.6047C14.0983 65.7979 17.5604 60.6704 21.6039 63.1024C28.5366 71.8387 43.7781 89.5642 51.4038 93.3702C51.7307 93.5156 52.0454 93.6534 52.347 93.7833C52.0476 93.6727 51.7328 93.5344 51.4038 93.3702C42.3316 89.3345 23.8604 79.3976 15.4775 68.6047Z" fill="#FDFCFE"/>
</g>
<g filter="url(#filter6_f_1_120)">
<path d="M12.9675 80.5751C11.5492 78.8822 13.3397 74.5488 16.6553 75.4249C23.0037 80.1467 36.7455 89.4831 42.8848 90.585C43.1454 90.6197 43.3959 90.6515 43.6357 90.6806C43.4004 90.6647 43.1496 90.6325 42.8848 90.585C35.6525 89.6211 20.6773 86.4461 12.9675 80.5751Z" fill="#FDFCFE"/>
</g>
<g filter="url(#filter7_f_1_120)">
<path d="M13.3474 91.8567C12.2384 90.5331 13.6384 87.1452 16.2305 87.8301C21.1938 91.5217 31.9373 98.8211 36.7371 99.6825C36.9409 99.7097 37.1367 99.7346 37.3242 99.7573C37.1402 99.7449 36.9442 99.7197 36.7371 99.6825C31.0828 98.929 19.375 96.4467 13.3474 91.8567Z" fill="#FDFCFE"/>
</g>
<g filter="url(#filter8_f_1_120)">
<path d="M17.145 102.198C16.2979 101.187 17.3673 98.5986 19.3475 99.1218C23.1391 101.942 31.3463 107.518 35.013 108.176C35.1687 108.197 35.3183 108.216 35.4615 108.233C35.321 108.224 35.1712 108.205 35.013 108.176C30.6935 107.601 21.7496 105.704 17.145 102.198Z" fill="#FDFCFE"/>
</g>
<g filter="url(#filter9_f_1_120)">
<path d="M78.5803 18.092C75.6667 14.8025 66.8539 16.8362 67.7165 23.5165C75.2453 37.3046 89.8347 66.8605 90.4276 79.0599C90.4295 79.5738 90.4284 80.0674 90.4245 80.5393C90.4527 80.0802 90.4532 79.5862 90.4276 79.0599C90.3744 64.7981 87.9873 34.8815 78.5803 18.092Z" fill="#FDFCFE"/>
</g>
<g filter="url(#filter10_f_1_120)">
<path d="M95.5669 19.7608C93.6894 16.6021 86.4929 16.6764 86.3261 22.1965C90.5077 34.6073 98.2516 60.9367 97.1733 70.8434C97.1097 71.2566 97.0464 71.653 96.9835 72.0315C97.0639 71.6676 97.1268 71.2708 97.1733 70.8434C98.9377 59.375 100.847 34.9155 95.5669 19.7608Z" fill="#FDFCFE"/>
</g>
<g filter="url(#filter11_f_1_120)">
<path d="M107.051 25.6323C105.858 23.0345 101.077 22.1372 100.872 26.2207C103.437 36.0048 108.13 56.6124 107.244 63.8378C107.195 64.1367 107.146 64.4232 107.098 64.6963C107.157 64.4363 107.206 64.1495 107.244 63.8378C108.612 55.5417 110.299 37.6026 107.051 25.6323Z" fill="#FDFCFE"/>
</g>
<g filter="url(#filter12_f_1_120)">
<path d="M117.118 30.2351C115.965 28.1562 110.906 28.2897 110.499 31.9629C112.785 40.1681 116.844 57.5886 115.566 64.1898C115.5 64.4654 115.435 64.7298 115.37 64.9822C115.446 64.7393 115.511 64.4746 115.566 64.1898C117.407 56.542 120.033 40.2524 117.118 30.2351Z" fill="#FDFCFE"/>
</g>
<g filter="url(#filter13_f_1_120)">
<path d="M126.854 37.5722C126.191 35.9781 122.539 35.6588 121.952 38.2749C122.941 44.3811 124.466 57.2797 123.018 61.9363C122.948 62.1296 122.88 62.315 122.814 62.4918C122.888 62.3228 122.956 62.1372 123.018 61.9363C124.956 56.5711 128.149 45.037 126.854 37.5722Z" fill="#FDFCFE"/>
</g>
<g filter="url(#filter14_f_1_120)">
<path d="M134.827 45.845C134.578 44.5496 131.896 43.7443 131.051 45.61C130.843 50.3308 129.983 60.2158 128.178 63.4743C128.096 63.6081 128.016 63.7361 127.939 63.8581C128.02 63.7432 128.1 63.6149 128.178 63.4743C130.46 59.7617 134.638 51.6296 134.827 45.845Z" fill="#FDFCFE"/>
</g>
</g>
<g filter="url(#filter15_f_1_120)">
<path d="M38.2579 17.1462C41.444 31.8082 61.0958 72.9823 105.349 116.43" stroke="#F8876F" stroke-width="2"/>
<path d="M59.1431 8.53163C67.7976 29.0851 90.591 80.1661 105.009 116.097M105.009 116.097C105.593 92.6723 86.2054 32.3836 77.3784 5.66295M105.009 116.097C110.363 54.4019 98.3488 17.4607 92.6125 7.19762" stroke="#F8876F" stroke-width="2"/>
<path d="M105.857 12.7894C111.506 37.2976 119.773 87.6895 105.339 115.421M105.339 115.421C123.935 90.0045 122.133 40.4472 119.101 18.3811M105.339 115.421C126.153 96.6453 138.687 61.3728 142.352 46.0835" stroke="#F8876F" stroke-width="2"/>
<path d="M131.032 28.0233C128.875 49.7455 121.88 98.1226 105.009 116.097M105.009 116.097C124.047 98.3714 135.25 56.0929 139.239 37.3888M105.009 116.097C67.7985 101.346 33.7681 54.0411 22.1725 32.4522M105.009 116.097C50.1794 98.0083 20.6524 61.7019 13.5108 46.0293M105.009 116.097C58.1271 108.456 20.0127 77.1126 7.58395 62.6157M105.009 116.097C55.2061 114.151 18.8828 88.4802 7.71479 76.1074M105.009 116.097C53.102 120.378 18.0846 99.1699 7.83254 88.25M105.009 116.097C60.4092 120.577 25.9487 107.977 15.0618 101.336" stroke="#F8876F" stroke-width="2"/>
</g>
<g filter="url(#filter16_f_1_120)">
<path d="M80.8825 126.425C81.8592 123.051 81.3845 120.364 80.8042 118.351L86.5303 118.968L84.2078 122.355L82.8881 125.06C81.8983 127.088 80.6951 130.241 78.916 131.828C79.0172 130.705 80.2979 128.445 80.8825 126.425Z" fill="#FFB6A6"/>
<path d="M83.4151 129.009C84.7778 128.06 87.0267 121.773 87.5396 118.958L90.2345 119.269C90.018 123.992 85.4059 127.863 83.4151 129.009C83.3633 129.045 83.3128 129.074 83.2637 129.094C83.3123 129.068 83.3628 129.039 83.4151 129.009Z" fill="#FFB6A6"/>
<path d="M88.9572 126.347C90.8604 125.79 92.0575 121.158 92.2532 119.249L95.9541 119.213C93.5787 124.081 90.1898 126.223 88.9572 126.347Z" fill="#FFB6A6"/>
<path d="M95.647 122.244L97.6364 119.197L100.325 118.834C100.066 119.913 97.0985 121.557 95.647 122.244Z" fill="#FFB6A6"/>
<path d="M80.8042 118.351C81.3845 120.364 81.8592 123.051 80.8825 126.425C80.2979 128.445 79.0172 130.705 78.916 131.828C80.6951 130.241 81.8983 127.088 82.8881 125.06L84.2078 122.355L86.5303 118.968L80.8042 118.351ZM87.5396 118.958C87.0072 121.88 84.6043 128.543 83.2637 129.094C85.1604 128.066 90.0123 124.116 90.2345 119.269L87.5396 118.958ZM92.2532 119.249C92.0575 121.158 90.8604 125.79 88.9572 126.347C90.1898 126.223 93.5787 124.081 95.9541 119.213L92.2532 119.249ZM97.6364 119.197L95.647 122.244C97.0985 121.557 100.066 119.913 100.325 118.834L97.6364 119.197Z" stroke="#FDFCFE" stroke-opacity="0.02"/>
</g>
<g filter="url(#filter17_f_1_120)">
<path d="M128.33 104.443C125.199 102.85 123.562 100.667 122.488 98.8681L119.026 103.471L123.087 104.09L125.963 104.974C128.121 105.637 131.244 106.913 133.619 106.698C132.73 106.005 130.204 105.396 128.33 104.443Z" fill="#FFB6A6"/>
<path d="M128.487 108.057C126.862 108.404 120.735 105.75 118.33 104.201L116.715 106.381C120.312 109.45 126.29 108.728 128.487 108.057C128.548 108.044 128.604 108.027 128.652 108.005C128.6 108.022 128.544 108.04 128.487 108.057Z" fill="#FFB6A6"/>
<path d="M122.756 110.285C121.049 111.294 116.849 109.003 115.321 107.842L112.766 110.519C117.944 112.111 121.823 111.1 122.756 110.285Z" fill="#FFB6A6"/>
<path d="M115.189 112.366L111.605 111.736L109.503 113.452C110.468 114 113.696 112.957 115.189 112.366Z" fill="#FFB6A6"/>
<path d="M122.488 98.8681C123.562 100.667 125.199 102.85 128.33 104.443C130.204 105.396 132.73 106.005 133.619 106.698C131.244 106.913 128.121 105.637 125.963 104.974L123.087 104.09L119.026 103.471L122.488 98.8681ZM118.33 104.201C120.826 105.809 127.333 108.607 128.652 108.005C126.606 108.687 120.406 109.531 116.715 106.381L118.33 104.201ZM115.321 107.842C116.849 109.003 121.049 111.294 122.756 110.285C121.823 111.1 117.944 112.111 112.766 110.519L115.321 107.842ZM111.605 111.736L115.189 112.366C113.696 112.957 110.468 114 109.503 113.452L111.605 111.736Z" stroke="#FDFCFE" stroke-opacity="0.02"/>
</g>
<defs>
<filter id="filter0_f_1_120" x="2.22477" y="0.749274" width="145.7" height="121.889" filterUnits="userSpaceOnUse" color-interpolation-filters="sRGB">
<feFlood flood-opacity="0" result="BackgroundImageFix"/>
<feBlend mode="normal" in="SourceGraphic" in2="BackgroundImageFix" result="shape"/>
<feGaussianBlur stdDeviation="2.3" result="effect1_foregroundBlur_1_120"/>
</filter>
<filter id="filter1_f_1_120" x="0.577356" y="4.64681" width="146.15" height="115.486" filterUnits="userSpaceOnUse" color-interpolation-filters="sRGB">
<feFlood flood-opacity="0" result="BackgroundImageFix"/>
<feBlend mode="normal" in="SourceGraphic" in2="BackgroundImageFix" result="shape"/>
<feGaussianBlur stdDeviation="5.95" result="effect1_foregroundBlur_1_120"/>
</filter>
<filter id="filter2_f_1_120" x="37.5325" y="9.07275" width="64.5569" height="95.1665" filterUnits="userSpaceOnUse" color-interpolation-filters="sRGB">
<feFlood flood-opacity="0" result="BackgroundImageFix"/>
<feBlend mode="normal" in="SourceGraphic" in2="BackgroundImageFix" result="shape"/>
<feGaussianBlur stdDeviation="4.7" result="effect1_foregroundBlur_1_120"/>
</filter>
<filter id="filter3_f_1_120" x="21.6786" y="24.0241" width="59.7866" height="74.3261" filterUnits="userSpaceOnUse" color-interpolation-filters="sRGB">
<feFlood flood-opacity="0" result="BackgroundImageFix"/>
<feBlend mode="normal" in="SourceGraphic" in2="BackgroundImageFix" result="shape"/>
<feGaussianBlur stdDeviation="4.7" result="effect1_foregroundBlur_1_120"/>
</filter>
<filter id="filter4_f_1_120" x="12.2173" y="37.9576" width="58.645" height="59.578" filterUnits="userSpaceOnUse" color-interpolation-filters="sRGB">
<feFlood flood-opacity="0" result="BackgroundImageFix"/>
<feBlend mode="normal" in="SourceGraphic" in2="BackgroundImageFix" result="shape"/>
<feGaussianBlur stdDeviation="4.7" result="effect1_foregroundBlur_1_120"/>
</filter>
<filter id="filter5_f_1_120" x="5.76919" y="53.0661" width="55.9778" height="50.1172" filterUnits="userSpaceOnUse" color-interpolation-filters="sRGB">
<feFlood flood-opacity="0" result="BackgroundImageFix"/>
<feBlend mode="normal" in="SourceGraphic" in2="BackgroundImageFix" result="shape"/>
<feGaussianBlur stdDeviation="4.7" result="effect1_foregroundBlur_1_120"/>
</filter>
<filter id="filter6_f_1_120" x="3.07736" y="65.9092" width="49.9584" height="34.1714" filterUnits="userSpaceOnUse" color-interpolation-filters="sRGB">
<feFlood flood-opacity="0" result="BackgroundImageFix"/>
<feBlend mode="normal" in="SourceGraphic" in2="BackgroundImageFix" result="shape"/>
<feGaussianBlur stdDeviation="4.7" result="effect1_foregroundBlur_1_120"/>
</filter>
<filter id="filter7_f_1_120" x="3.56411" y="78.3397" width="43.1601" height="30.8176" filterUnits="userSpaceOnUse" color-interpolation-filters="sRGB">
<feFlood flood-opacity="0" result="BackgroundImageFix"/>
<feBlend mode="normal" in="SourceGraphic" in2="BackgroundImageFix" result="shape"/>
<feGaussianBlur stdDeviation="4.7" result="effect1_foregroundBlur_1_120"/>
</filter>
<filter id="filter8_f_1_120" x="7.45223" y="89.6528" width="37.4093" height="27.9805" filterUnits="userSpaceOnUse" color-interpolation-filters="sRGB">
<feFlood flood-opacity="0" result="BackgroundImageFix"/>
<feBlend mode="normal" in="SourceGraphic" in2="BackgroundImageFix" result="shape"/>
<feGaussianBlur stdDeviation="4.7" result="effect1_foregroundBlur_1_120"/>
</filter>
<filter id="filter9_f_1_120" x="58.2574" y="7.14681" width="41.5889" height="82.7925" filterUnits="userSpaceOnUse" color-interpolation-filters="sRGB">
<feFlood flood-opacity="0" result="BackgroundImageFix"/>
<feBlend mode="normal" in="SourceGraphic" in2="BackgroundImageFix" result="shape"/>
<feGaussianBlur stdDeviation="4.7" result="effect1_foregroundBlur_1_120"/>
</filter>
<filter id="filter10_f_1_120" x="76.9261" y="8.25517" width="31.487" height="73.1763" filterUnits="userSpaceOnUse" color-interpolation-filters="sRGB">
<feFlood flood-opacity="0" result="BackgroundImageFix"/>
<feBlend mode="normal" in="SourceGraphic" in2="BackgroundImageFix" result="shape"/>
<feGaussianBlur stdDeviation="4.7" result="effect1_foregroundBlur_1_120"/>
</filter>
<filter id="filter11_f_1_120" x="91.4718" y="14.0197" width="26.85" height="60.0766" filterUnits="userSpaceOnUse" color-interpolation-filters="sRGB">
<feFlood flood-opacity="0" result="BackgroundImageFix"/>
<feBlend mode="normal" in="SourceGraphic" in2="BackgroundImageFix" result="shape"/>
<feGaussianBlur stdDeviation="4.7" result="effect1_foregroundBlur_1_120"/>
</filter>
<filter id="filter12_f_1_120" x="101.099" y="19.4848" width="26.7226" height="54.8975" filterUnits="userSpaceOnUse" color-interpolation-filters="sRGB">
<feFlood flood-opacity="0" result="BackgroundImageFix"/>
<feBlend mode="normal" in="SourceGraphic" in2="BackgroundImageFix" result="shape"/>
<feGaussianBlur stdDeviation="4.7" result="effect1_foregroundBlur_1_120"/>
</filter>
<filter id="filter13_f_1_120" x="112.552" y="26.9414" width="24.0026" height="44.9504" filterUnits="userSpaceOnUse" color-interpolation-filters="sRGB">
<feFlood flood-opacity="0" result="BackgroundImageFix"/>
<feBlend mode="normal" in="SourceGraphic" in2="BackgroundImageFix" result="shape"/>
<feGaussianBlur stdDeviation="4.7" result="effect1_foregroundBlur_1_120"/>
</filter>
<filter id="filter14_f_1_120" x="118.539" y="35.1111" width="25.6883" height="38.147" filterUnits="userSpaceOnUse" color-interpolation-filters="sRGB">
<feFlood flood-opacity="0" result="BackgroundImageFix"/>
<feBlend mode="normal" in="SourceGraphic" in2="BackgroundImageFix" result="shape"/>
<feGaussianBlur stdDeviation="4.7" result="effect1_foregroundBlur_1_120"/>
</filter>
<filter id="filter15_f_1_120" x="5.52477" y="4.04927" width="139.1" height="115.289" filterUnits="userSpaceOnUse" color-interpolation-filters="sRGB">
<feFlood flood-opacity="0" result="BackgroundImageFix"/>
<feBlend mode="normal" in="SourceGraphic" in2="BackgroundImageFix" result="shape"/>
<feGaussianBlur stdDeviation="0.65" result="effect1_foregroundBlur_1_120"/>
</filter>
<filter id="filter16_f_1_120" x="75.5042" y="114.974" width="28.2768" height="20.8704" filterUnits="userSpaceOnUse" color-interpolation-filters="sRGB">
<feFlood flood-opacity="0" result="BackgroundImageFix"/>
<feBlend mode="normal" in="SourceGraphic" in2="BackgroundImageFix" result="shape"/>
<feGaussianBlur stdDeviation="1.4" result="effect1_foregroundBlur_1_120"/>
</filter>
<filter id="filter17_f_1_120" x="105.822" y="95.1725" width="31.9029" height="21.7337" filterUnits="userSpaceOnUse" color-interpolation-filters="sRGB">
<feFlood flood-opacity="0" result="BackgroundImageFix"/>
<feBlend mode="normal" in="SourceGraphic" in2="BackgroundImageFix" result="shape"/>
<feGaussianBlur stdDeviation="1.4" result="effect1_foregroundBlur_1_120"/>
</filter>
</defs>
</svg>
