<svg width="405" height="587" viewBox="0 0 405 587" fill="none" xmlns="http://www.w3.org/2000/svg">
<path d="M294.132 36.9807C294.81 58.5092 252.847 77.299 200.406 78.9489C147.965 80.5988 104.904 64.484 104.226 42.9556C103.549 21.4271 145.512 2.63736 197.953 0.987443C250.394 -0.662474 293.455 15.4523 294.132 36.9807Z" fill="#FFE680"/>
<path fill-rule="evenodd" clip-rule="evenodd" d="M284.992 50.3026C289.288 45.8623 291.27 41.3962 291.134 37.0751C290.998 32.7539 288.739 28.4212 284.172 24.2598C279.597 20.0898 272.888 16.2775 264.403 13.1019C247.446 6.75611 223.976 3.17019 198.047 3.98596C172.119 4.80173 148.921 9.85594 132.396 17.2551C124.127 20.9579 117.672 25.1843 113.367 29.6337C109.071 34.074 107.089 38.5401 107.225 42.8613C107.361 47.1824 109.62 51.5151 114.186 55.6765C118.762 59.8465 125.47 63.6588 133.956 66.8344C150.913 73.1802 174.383 76.7661 200.312 75.9503C226.24 75.1346 249.438 70.0804 265.963 62.6812C274.232 58.9784 280.687 54.752 284.992 50.3026ZM200.406 78.9489C252.847 77.299 294.81 58.5092 294.132 36.9807C293.455 15.4523 250.394 -0.662474 197.953 0.987443C145.512 2.63736 103.549 21.4271 104.226 42.9556C104.904 64.484 147.965 80.5988 200.406 78.9489Z" fill="black"/>
<path d="M273.155 37.8614C273.622 52.6965 240.576 65.7744 199.345 67.0716C158.114 68.3688 124.312 57.3941 123.845 42.559C123.378 27.7239 156.424 14.646 197.655 13.3488C238.886 12.0516 272.688 23.0263 273.155 37.8614Z" fill="white"/>
<path fill-rule="evenodd" clip-rule="evenodd" d="M265.602 46.2788C268.927 43.2657 270.235 40.4488 270.156 37.9557C270.078 35.4627 268.595 32.7335 265.088 29.9353C261.594 27.1471 256.405 24.5648 249.765 22.4088C236.51 18.1053 218.112 15.7067 197.749 16.3473C177.387 16.988 159.176 20.5385 146.217 25.6667C139.726 28.2358 134.71 31.1392 131.398 34.1416C128.073 37.1547 126.765 39.9716 126.844 42.4647C126.922 44.9577 128.405 47.6869 131.912 50.485C135.406 53.2733 140.595 55.8556 147.235 58.0115C160.49 62.315 178.888 64.7137 199.251 64.0731C219.613 63.4324 237.824 59.8819 250.783 54.7537C257.274 52.1846 262.29 49.2812 265.602 46.2788ZM199.345 67.0716C240.576 65.7744 273.622 52.6965 273.155 37.8614C272.688 23.0263 238.886 12.0516 197.655 13.3488C156.424 14.646 123.378 27.7239 123.845 42.559C124.312 57.3941 158.114 68.3688 199.345 67.0716Z" fill="black"/>
<path d="M127.09 64.8582L145.59 56.8582C191.19 73.2582 238.09 62.0249 256.09 53.8582C266.09 56.2582 272.59 60.1916 274.59 61.8582C200.59 89.4582 145.423 75.3582 127.09 64.8582Z" fill="#FFE680" fill-opacity="0.38"/>
<path d="M125.09 94.8582C143.59 90.3582 181.99 81.1582 187.59 80.3582L205.09 77.3582C202.423 76.5249 195.69 75.3582 190.09 77.3582C184.49 79.3582 160.256 79.0249 148.59 77.3582C113.39 85.7582 95.7562 119.358 91.5895 134.358C64.7895 223.158 132.423 259.358 169.59 268.358C229.99 279.558 276.59 250.025 291.09 234.358C362.09 174.858 299.256 87.0249 258.59 68.3582L239.09 73.3582L246.59 74.8582C320.99 111.258 319.256 167.692 309.09 191.358C280.69 258.158 216.256 270.525 187.59 268.358C60.7895 219.958 93.0895 132.525 125.09 94.8582Z" fill="#E5E7FF" fill-opacity="0.6"/>
<path d="M308.59 278.358C426.19 421.958 318.923 516.192 250.59 545.358C289.79 542.958 329.59 515.358 344.59 501.858C354.923 487.192 375.49 444.558 375.09 391.358C374.69 338.158 337.923 290.192 319.59 272.858L308.59 278.358Z" fill="#E5E7FF" fill-opacity="0.6"/>
<path fill-rule="evenodd" clip-rule="evenodd" d="M395.59 391.329C399.579 323.125 359.68 266.825 339.243 247.219L339.936 246.497C360.499 266.225 400.6 322.792 396.589 391.387L395.59 391.329Z" fill="black"/>
<path fill-rule="evenodd" clip-rule="evenodd" d="M236.103 121.156C236.215 120.335 236.971 119.76 237.792 119.872C247.29 121.167 253.319 128.638 255.922 133.669C256.302 134.405 256.014 135.31 255.279 135.691C254.543 136.071 253.638 135.783 253.257 135.047C250.86 130.412 245.489 123.949 237.387 122.844C236.566 122.733 235.991 121.976 236.103 121.156ZM149.59 122.858C149.59 122.03 150.261 121.358 151.09 121.358C154.435 121.358 157.741 122.559 160.483 124.195C163.219 125.828 165.535 127.979 166.855 130.053C167.3 130.752 167.094 131.679 166.395 132.124C165.696 132.569 164.769 132.362 164.324 131.664C163.31 130.071 161.377 128.222 158.946 126.771C156.521 125.324 153.744 124.358 151.09 124.358C150.261 124.358 149.59 123.687 149.59 122.858ZM255.334 176.056C256.053 176.467 256.303 177.383 255.892 178.102C254.775 180.056 252.308 182.895 249.472 185.146C248.043 186.28 246.467 187.308 244.864 188.002C243.273 188.691 241.543 189.1 239.861 188.841C239.043 188.715 238.481 187.949 238.607 187.13C238.733 186.311 239.499 185.75 240.318 185.876C241.236 186.017 242.369 185.813 243.672 185.249C244.962 184.69 246.311 183.824 247.607 182.796C250.221 180.721 252.404 178.16 253.287 176.614C253.698 175.895 254.614 175.645 255.334 176.056ZM168.904 179.599C169.6 180.049 169.799 180.978 169.349 181.673C168.369 183.187 166.604 185.426 164.434 187.305C162.306 189.147 159.54 190.858 156.59 190.858C155.761 190.858 155.09 190.187 155.09 189.358C155.09 188.53 155.761 187.858 156.59 187.858C158.439 187.858 160.506 186.736 162.47 185.037C164.391 183.374 165.977 181.362 166.83 180.043C167.28 179.348 168.209 179.149 168.904 179.599Z" fill="black"/>
<path fill-rule="evenodd" clip-rule="evenodd" d="M296.215 145.906C297.017 145.699 297.835 146.182 298.042 146.984C300.155 155.183 302.302 168.649 301.901 182.514C301.502 196.334 298.565 210.831 290.242 220.819C289.712 221.455 288.766 221.541 288.129 221.011C287.493 220.48 287.407 219.534 287.937 218.898C295.614 209.686 298.51 196.016 298.903 182.427C299.294 168.884 297.191 155.7 295.137 147.733C294.93 146.93 295.413 146.112 296.215 145.906Z" fill="#FF86FF"/>
<path fill-rule="evenodd" clip-rule="evenodd" d="M193.935 218.976C191.505 219.213 189.333 219.806 188.116 220.263C187.341 220.554 186.476 220.161 186.185 219.385C185.894 218.609 186.287 217.745 187.063 217.454C188.513 216.91 190.941 216.254 193.644 215.99C196.331 215.729 199.445 215.84 202.166 216.974C202.931 217.292 203.293 218.17 202.974 218.935C202.656 219.7 201.777 220.061 201.013 219.743C198.934 218.877 196.381 218.738 193.935 218.976Z" fill="black"/>
<path d="M166.642 155.892C167.177 174.964 161.324 190.601 153.569 190.819C145.814 191.037 139.094 175.752 138.559 156.68C138.023 137.607 143.876 121.97 151.631 121.752C159.386 121.535 166.107 136.819 166.642 155.892Z" fill="black"/>
<path fill-rule="evenodd" clip-rule="evenodd" d="M162.278 180.075C164.588 173.903 165.907 165.359 165.642 155.92C165.377 146.48 163.581 138.024 160.929 131.991C159.601 128.972 158.08 126.607 156.472 125.026C154.866 123.447 153.241 122.708 151.659 122.752C150.078 122.796 148.496 123.625 146.982 125.292C145.465 126.962 144.079 129.407 142.923 132.496C140.612 138.668 139.293 147.212 139.558 156.652C139.823 166.091 141.619 174.547 144.272 180.581C145.6 183.6 147.12 185.964 148.729 187.546C150.335 189.125 151.96 189.864 153.541 189.819C155.123 189.775 156.704 188.946 158.219 187.279C159.736 185.61 161.122 183.164 162.278 180.075ZM153.569 190.819C161.324 190.601 167.177 174.964 166.642 155.892C166.107 136.819 159.386 121.535 151.631 121.752C143.876 121.97 138.023 137.607 138.559 156.68C139.094 175.752 145.814 191.037 153.569 190.819Z" fill="black"/>
<path d="M251.636 154.662C252.167 173.607 246.312 189.142 238.557 189.359C230.802 189.577 224.084 174.395 223.552 155.45C223.021 136.505 228.876 120.97 236.631 120.752C244.386 120.535 251.104 135.716 251.636 154.662Z" fill="black"/>
<path fill-rule="evenodd" clip-rule="evenodd" d="M247.268 178.681C249.579 172.55 250.899 164.065 250.636 154.69C250.373 145.314 248.578 136.916 245.928 130.926C244.601 127.928 243.081 125.58 241.474 124.01C239.869 122.442 238.243 121.707 236.659 121.752C235.075 121.796 233.493 122.621 231.979 124.276C230.462 125.934 229.076 128.363 227.92 131.431C225.609 137.561 224.289 146.046 224.552 155.422C224.815 164.797 226.609 173.195 229.26 179.186C230.587 182.184 232.107 184.531 233.714 186.102C235.319 187.669 236.945 188.404 238.529 188.36C240.112 188.315 241.695 187.49 243.209 185.835C244.726 184.177 246.112 181.748 247.268 178.681ZM238.557 189.359C246.312 189.142 252.167 173.607 251.636 154.662C251.104 135.716 244.386 120.535 236.631 120.752C228.876 120.97 223.021 136.505 223.552 155.45C224.084 174.395 230.802 189.577 238.557 189.359Z" fill="black"/>
<path d="M98.5895 261.858L102.09 256.858C94.4895 246.858 85.9229 232.358 82.5895 226.358C48.1895 241.158 19.9229 304.525 10.0895 334.358C-20.7105 499.558 100.59 568.192 165.09 581.858C311.49 605.858 380.09 494.525 396.09 435.858C422.889 331.458 361.59 255.358 327.59 230.358L307.09 256.858L308.59 266.358L316.59 269.358C398.189 332.558 377.59 434.692 357.09 477.858C325.09 536.258 268.59 541.516 238.59 548.358C170.19 563.958 109.756 514.858 89.5895 490.358C7.58952 388.758 59.0895 298.692 95.0895 266.358L92.0895 261.858H98.5895Z" fill="#B9C2FF" fill-opacity="0.6"/>
<path fill-rule="evenodd" clip-rule="evenodd" d="M83.2193 222.894L83.9822 224.801C89.4836 238.555 98.7364 249.208 102.603 252.753L102.663 252.807L102.717 252.868C122.657 275.572 148.386 287.405 172.514 292.959C196.654 298.516 219.099 297.764 232.324 295.382L232.391 295.37L232.458 295.364C254.847 293.4 275.235 282.092 291.677 268.635C308.113 255.183 320.482 239.684 326.818 229.562L327.583 228.341L328.834 229.056C354.969 243.99 406.101 298.131 404.089 395.889C402.073 493.885 327.337 551.59 290.209 568.225C290.207 568.225 290.205 568.226 290.203 568.227L289.59 566.858L290.209 568.225C290.208 568.225 290.209 568.224 290.209 568.225C262.991 580.573 217.502 591.59 169.324 584.58C121.081 577.561 70.1776 552.464 32.3221 492.66C-5.54722 432.835 -5.22528 375.566 10.5921 328.332C26.3885 281.161 57.6262 244.013 81.6348 224.201L83.2193 222.894ZM13.4369 329.285C-2.12903 375.767 -2.47375 432.081 34.8569 491.056C72.2014 550.052 122.298 574.706 169.756 581.611C217.277 588.526 262.187 577.644 288.97 565.492L288.976 565.489C325.517 549.12 399.106 492.227 401.09 395.827C403.046 300.738 354.153 247.777 328.578 232.384C321.883 242.75 309.636 257.813 293.577 270.957C276.894 284.611 255.973 296.294 232.788 298.347C219.172 300.788 196.351 301.525 171.841 295.883C147.297 290.233 120.968 278.165 100.516 254.908C96.5384 251.242 87.7133 241.07 81.9875 227.816C58.5483 247.642 28.6842 283.753 13.4369 329.285Z" fill="black"/>
<path fill-rule="evenodd" clip-rule="evenodd" d="M73.8704 240.578C74.3015 241.285 74.0775 242.208 73.3701 242.639C60.9601 250.201 50.3664 266.026 42.1511 282.927C33.9662 299.764 28.2736 317.389 25.5441 328.225C25.3417 329.028 24.5264 329.515 23.7231 329.313C22.9198 329.11 22.4326 328.295 22.635 327.492C25.4055 316.494 31.1629 298.669 39.453 281.615C47.7126 264.624 58.6189 248.115 71.809 240.077C72.5164 239.646 73.4393 239.87 73.8704 240.578ZM11.5244 399.36C12.352 399.324 13.0521 399.965 13.0881 400.793C13.7475 415.96 17.9867 440.705 28.5689 465.469C39.151 490.232 56.0181 514.882 81.8496 530.065C82.5638 530.485 82.8025 531.404 82.3827 532.118C81.9629 532.833 81.0436 533.071 80.3294 532.651C53.761 517.035 36.5447 491.768 25.8102 466.648C15.0757 441.528 10.7649 416.424 10.0909 400.923C10.0549 400.096 10.6967 399.396 11.5244 399.36ZM300.901 546.596C301.598 547.044 301.799 547.973 301.351 548.669C298.462 553.164 293.529 557.077 287.605 560.459C281.659 563.855 274.587 566.788 267.271 569.266C252.639 574.223 236.87 577.417 226.8 578.843C225.98 578.96 225.221 578.389 225.104 577.569C224.988 576.748 225.559 575.989 226.379 575.873C236.309 574.466 251.89 571.31 266.308 566.425C273.517 563.983 280.395 561.122 286.118 557.854C291.863 554.573 296.317 550.953 298.828 547.047C299.276 546.35 300.204 546.148 300.901 546.596Z" fill="#7D8CFF"/>
<path fill-rule="evenodd" clip-rule="evenodd" d="M394.591 389.287C396.964 322.844 357.952 267.89 338.199 248.796L340.98 245.92C361.227 265.493 401.015 321.473 398.588 389.43L394.591 389.287Z" fill="#7D8CFF"/>
<path fill-rule="evenodd" clip-rule="evenodd" d="M176.491 560.849C68.1668 539.184 35.7629 439.491 33.0903 392.387L34.0887 392.33C36.7494 439.225 69.0122 538.333 176.688 559.868L176.491 560.849Z" fill="black"/>
<path d="M151.59 74.3583C140.09 79.6916 113.234 95.3582 106.59 104.858C85.2562 135.358 60.2895 207.558 137.09 256.358C166.256 273.025 241.39 288.758 308.59 218.358C315.256 207.692 326.99 180.858 320.59 158.858C318.756 135.525 294.09 82.8583 256.09 70.8583C258.09 68.8583 259.919 70.384 266.09 66.8583C270.861 64.1317 274.858 62.1021 276.181 61.4028C276.15 61.3879 276.12 61.3731 276.09 61.3582C276.832 61.0399 276.798 61.0763 276.181 61.4028C299.713 72.9658 347.484 114.644 343.089 181.358C342.089 200.025 326.99 245.158 282.59 278.358C252.59 295.692 178.59 318.558 122.59 271.358C100.756 255.858 57.9895 208.858 71.5895 146.858C76.7562 127.192 94.9895 84.0583 126.59 66.8583C132.59 70.8583 146.59 74.3583 151.59 74.3583Z" fill="#BBC1FF" fill-opacity="0.6"/>
<path d="M321.09 297.858C317.09 296.358 310.59 297.858 312.59 282.858C313.196 278.311 315.544 276.492 318.59 276.259C323.923 276.625 336.99 281.458 346.59 297.858C358.59 318.358 364.09 335.358 372.09 355.858C378.49 372.258 369.423 386.025 364.09 390.858C361.29 363.258 341.59 325.358 332.09 309.858C329.756 306.358 324.29 299.058 321.09 297.858Z" fill="white"/>
<path d="M368.59 431.858C359.79 425.058 364.923 410.025 368.59 403.358C370.112 400.158 373.224 404.692 374.59 407.358C381.089 422.558 373.298 430.025 368.59 431.858Z" fill="white"/>
<path d="M278.09 98.8582C268.89 89.6582 274.256 81.6916 278.09 78.8582L292.09 93.3582L308.59 114.858C313.79 122.058 319.09 139.525 321.09 147.358C321.09 158.558 315.423 159.692 312.59 158.858L302.09 130.358C297.923 123.692 287.29 108.058 278.09 98.8582Z" fill="white"/>
<path d="M318.59 167.858C317.09 173.525 315.49 185.258 321.09 186.858C324.423 183.525 328.59 175.058 318.59 167.858Z" fill="white"/>
<path fill-rule="evenodd" clip-rule="evenodd" d="M278.145 78.1956L292.469 93.0313L308.991 114.56L308.995 114.566C311.641 118.229 314.285 124.456 316.511 130.703C318.741 136.965 320.571 143.305 321.574 147.235L321.59 147.295V147.358C321.59 153.029 320.156 156.281 318.235 157.994C316.31 159.711 313.995 159.793 312.448 159.338L312.207 159.267L301.638 130.58C297.457 123.895 286.874 108.35 277.736 99.2118C273.04 94.5163 272.004 90.0631 272.711 86.3765C273.411 82.7265 275.803 79.9264 277.792 78.4562L278.145 78.1956ZM273.693 86.565C273.059 89.87 273.939 94.0002 278.443 98.5047C287.685 107.747 298.343 123.42 302.514 130.093L302.541 130.137L312.969 158.442C314.248 158.744 316.05 158.603 317.569 157.248C319.184 155.808 320.579 152.909 320.589 147.421C319.589 143.512 317.776 137.235 315.569 131.039C313.345 124.797 310.741 118.694 308.189 115.157L291.71 93.6852L278.041 79.5275C276.275 80.948 274.295 83.4301 273.693 86.565ZM318.292 167.028L318.882 167.452C323.998 171.137 325.559 175.208 325.339 178.839C325.121 182.427 323.169 185.485 321.443 187.212L321.235 187.42L320.952 187.339C319.368 186.886 318.321 185.717 317.667 184.211C317.017 182.714 316.734 180.849 316.677 178.898C316.563 174.992 317.349 170.591 318.106 167.73L318.292 167.028ZM318.89 168.705C318.211 171.493 317.575 175.401 317.677 178.869C317.732 180.759 318.006 182.481 318.584 183.812C319.113 185.03 319.88 185.887 320.949 186.286C322.498 184.647 324.15 181.912 324.34 178.778C324.529 175.677 323.291 172.093 318.89 168.705ZM327.117 277.796C330.014 279.123 332.797 280.889 334.89 282.458C335.11 282.624 335.155 282.937 334.99 283.158C334.962 283.195 334.931 283.226 334.897 283.253C339.034 286.582 343.29 291.232 347.021 297.606C356.828 314.359 362.308 328.791 368.329 344.651C369.691 348.238 371.081 351.899 372.555 355.676C379.059 372.343 369.844 386.318 364.425 391.229L363.692 391.893L363.592 390.909C362.2 377.186 356.6 360.868 350.144 346.02C343.693 331.186 336.407 317.86 331.668 310.128C330.509 308.39 328.574 305.711 326.534 303.32C325.513 302.123 324.472 301.006 323.494 300.117C322.506 299.22 321.622 298.592 320.914 298.326C320.445 298.15 319.931 298.016 319.379 297.885C319.219 297.847 319.055 297.809 318.889 297.771C318.489 297.679 318.073 297.583 317.664 297.474C316.496 297.162 315.28 296.715 314.255 295.792C312.182 293.927 311.09 290.319 312.094 282.792C312.407 280.446 313.178 278.741 314.32 277.589C315.466 276.433 316.937 275.884 318.551 275.76C321.175 275.559 324.233 276.474 327.117 277.796ZM318.592 276.76C317.176 276.875 315.963 277.352 315.03 278.293C314.085 279.246 313.379 280.724 313.085 282.924C312.089 290.397 313.247 293.54 314.924 295.049C315.774 295.814 316.808 296.211 317.922 296.508C318.313 296.613 318.702 296.702 319.094 296.792C319.265 296.831 319.436 296.871 319.609 296.912C320.17 297.045 320.734 297.191 321.265 297.39C322.157 297.725 323.156 298.459 324.166 299.377C325.187 300.304 326.258 301.456 327.295 302.671C329.369 305.102 331.331 307.818 332.506 309.581L332.511 309.589L332.516 309.597C337.277 317.366 344.588 330.736 351.061 345.621C357.373 360.139 362.906 376.137 364.478 389.798C369.768 384.515 377.638 371.452 371.624 356.04C370.143 352.247 368.749 348.576 367.385 344.982C361.366 329.13 355.919 314.786 346.158 298.111C336.657 281.88 323.772 277.134 318.592 276.76ZM371.99 402.793C373.193 403.919 374.343 405.781 375.035 407.13L375.042 407.146L375.049 407.162C378.341 414.86 378.041 420.672 376.252 424.819C374.469 428.951 371.236 431.364 368.771 432.324L368.508 432.427L368.284 432.254C363.679 428.696 362.768 423.013 363.418 417.5C364.068 411.984 366.291 406.504 368.145 403.13C368.573 402.237 369.197 401.733 369.993 401.758C370.711 401.781 371.401 402.242 371.99 402.793ZM369.962 402.758C369.707 402.75 369.374 402.874 369.041 403.573L369.035 403.586L369.028 403.599C367.216 406.893 365.043 412.256 364.411 417.617C363.789 422.89 364.667 428.032 368.671 431.285C370.883 430.344 373.733 428.133 375.333 424.423C376.991 420.581 377.337 415.065 374.137 407.571C373.462 406.256 372.378 404.527 371.307 403.523C370.757 403.008 370.298 402.769 369.962 402.758Z" fill="black"/>
<path fill-rule="evenodd" clip-rule="evenodd" d="M325.734 124.901C326.539 124.705 327.351 125.198 327.547 126.003C329.221 132.868 331.581 143.836 333.222 154.454C334.042 159.763 334.687 165.005 334.974 169.615C335.259 174.191 335.202 178.268 334.554 181.184C334.374 181.992 333.573 182.502 332.764 182.323C331.955 182.143 331.446 181.342 331.625 180.533C332.177 178.048 332.262 174.322 331.98 169.802C331.7 165.316 331.07 160.171 330.257 154.912C328.632 144.397 326.291 133.515 324.632 126.714C324.436 125.909 324.929 125.097 325.734 124.901ZM87.1622 150.86C87.9897 150.9 88.6279 151.604 88.5878 152.431C88.1782 160.869 89.0394 174.963 92.9759 189.658C96.915 204.362 103.893 219.518 115.603 230.253C116.214 230.812 116.255 231.761 115.695 232.372C115.135 232.983 114.187 233.024 113.576 232.464C101.286 221.199 94.0973 205.438 90.0781 190.434C86.0563 175.421 85.1675 161.014 85.5913 152.286C85.6314 151.458 86.3348 150.82 87.1622 150.86ZM322.524 215.422C323.317 215.662 323.765 216.499 323.525 217.292C322.429 220.918 320.508 226.482 318.295 231.41C317.19 233.871 315.995 236.215 314.773 238.091C313.599 239.894 312.235 241.531 310.71 242.224C309.956 242.567 309.067 242.233 308.724 241.479C308.381 240.725 308.715 239.835 309.469 239.493C310.144 239.186 311.11 238.218 312.259 236.454C313.361 234.762 314.484 232.574 315.559 230.181C317.704 225.402 319.583 219.965 320.654 216.424C320.893 215.631 321.731 215.183 322.524 215.422ZM374.1 318.44C374.883 318.17 375.737 318.586 376.007 319.369C379.278 328.844 383.897 344.636 387.149 361.283C390.393 377.885 392.317 395.528 390.068 408.612C389.928 409.429 389.152 409.977 388.335 409.837C387.519 409.696 386.971 408.921 387.111 408.104C389.262 395.588 387.436 378.398 384.205 361.858C380.982 345.364 376.402 329.706 373.172 320.348C372.901 319.565 373.317 318.711 374.1 318.44ZM59.9001 330.391C60.7106 330.562 61.2286 331.358 61.057 332.169C58.6665 343.462 56.5808 362.242 58.1223 381.753C59.6663 401.295 64.8311 421.339 76.734 435.389C77.2695 436.021 77.1912 436.967 76.5591 437.503C75.9271 438.038 74.9805 437.96 74.445 437.328C61.9479 422.577 56.696 401.788 55.1317 381.989C53.5649 362.158 55.6792 343.088 58.122 331.548C58.2936 330.737 59.0897 330.219 59.9001 330.391ZM350.542 441.928C351.332 442.178 351.77 443.021 351.52 443.811C347.836 455.449 341.134 473.547 332.985 490.06C328.91 498.315 324.457 506.208 319.82 512.709C315.204 519.18 310.311 524.407 305.316 527.171C304.591 527.572 303.678 527.309 303.277 526.584C302.876 525.859 303.139 524.947 303.863 524.546C308.268 522.109 312.846 517.32 317.378 510.967C321.888 504.644 326.26 496.905 330.294 488.732C338.362 472.386 345.01 454.434 348.659 442.906C348.909 442.116 349.752 441.678 350.542 441.928ZM367.683 472.981C368.444 473.309 368.795 474.191 368.467 474.952C366.364 479.832 362.803 487.134 358.942 493.19C357.015 496.211 354.976 498.984 352.968 500.993C351.963 501.999 350.927 502.854 349.878 503.449C348.832 504.043 347.684 504.43 346.496 504.355C345.669 504.304 345.041 503.591 345.092 502.765C345.144 501.938 345.856 501.309 346.683 501.361C347.096 501.387 347.658 501.26 348.396 500.84C349.131 500.423 349.954 499.766 350.846 498.873C352.63 497.087 354.535 494.522 356.412 491.577C360.16 485.699 363.649 478.552 365.712 473.764C366.04 473.004 366.923 472.653 367.683 472.981ZM94.1329 495.203C94.771 494.675 95.7166 494.764 96.2449 495.402C102.577 503.05 114.528 514.907 129.71 525.49C144.9 536.079 163.215 545.315 182.289 547.872C183.11 547.982 183.686 548.736 183.576 549.557C183.466 550.379 182.711 550.955 181.89 550.845C162.164 548.201 143.396 538.688 127.994 527.951C112.584 517.209 100.435 505.166 93.9341 497.315C93.4058 496.677 93.4948 495.731 94.1329 495.203Z" fill="#2EFFFF"/>
<path fill-rule="evenodd" clip-rule="evenodd" d="M106.173 113.32C106.746 113.919 106.725 114.868 106.127 115.441C104.46 117.039 101.945 121.422 100.67 129.286C99.4052 137.091 99.3878 148.192 102.557 163.045C102.729 163.855 102.213 164.652 101.402 164.825C100.592 164.998 99.7954 164.481 99.6225 163.671C96.3912 148.524 96.3738 137.043 97.7088 128.806C99.0343 120.628 101.719 115.51 104.052 113.275C104.65 112.702 105.599 112.722 106.173 113.32ZM72.9918 280.16C73.6536 280.658 73.7861 281.599 73.2878 282.26C62.8035 296.185 44.2798 335.171 54.55 379.016C54.7389 379.823 54.2382 380.63 53.4316 380.819C52.625 381.008 51.818 380.507 51.629 379.7C41.0992 334.746 60.0422 294.865 70.8912 280.456C71.3895 279.794 72.33 279.662 72.9918 280.16ZM336.676 355.916C337.472 355.688 338.303 356.148 338.531 356.944C341.138 366.026 344.408 381.096 345.771 396.879C347.13 412.61 346.619 429.292 341.471 441.443C341.147 442.206 340.267 442.563 339.504 442.239C338.742 441.916 338.385 441.036 338.708 440.273C343.56 428.824 344.132 412.756 342.783 397.137C341.438 381.57 338.208 366.691 335.648 357.772C335.419 356.976 335.879 356.145 336.676 355.916Z" fill="#FF86FF"/>
<path fill-rule="evenodd" clip-rule="evenodd" d="M297.365 92.7175C297.995 91.4889 299.502 91.0037 300.73 91.6337C309.346 96.0522 315.764 106.18 320.288 116.41C324.87 126.769 327.771 137.84 329.05 144.914C329.295 146.272 328.393 147.573 327.034 147.818C325.675 148.064 324.375 147.162 324.129 145.803C322.908 139.043 320.109 128.364 315.716 118.432C311.265 108.37 305.433 99.6643 298.449 96.0828C297.22 95.4528 296.735 93.946 297.365 92.7175ZM304.675 216.428C306.017 216.751 306.843 218.102 306.52 219.444C302.456 236.31 296.667 248 290.984 255.783C285.351 263.496 279.705 267.522 275.842 268.742C274.526 269.158 273.121 268.428 272.706 267.111C272.29 265.794 273.02 264.39 274.337 263.974C276.807 263.194 281.661 260.071 286.946 252.834C292.179 245.667 297.723 234.606 301.659 218.273C301.983 216.93 303.333 216.104 304.675 216.428ZM344.711 280.208C345.622 279.171 347.202 279.069 348.239 279.98C363.549 293.428 371.827 311.665 375.994 328.831C380.16 345.993 380.272 362.296 379.071 372.16C378.904 373.531 377.658 374.507 376.287 374.34C374.917 374.173 373.941 372.927 374.108 371.556C375.24 362.253 375.152 346.556 371.135 330.011C367.119 313.468 359.23 296.289 344.94 283.737C343.902 282.825 343.8 281.246 344.711 280.208ZM355.178 481.108C356.421 481.709 356.941 483.204 356.34 484.447C337.983 522.384 299.559 546.683 282.596 554.147C281.333 554.703 279.857 554.129 279.301 552.865C278.745 551.601 279.319 550.126 280.583 549.57C296.954 542.367 334.196 518.733 351.839 482.269C352.441 481.026 353.936 480.506 355.178 481.108Z" fill="#FFE680"/>
<path d="M99.0895 262.858L102.59 257.358C190.59 336.158 277.923 290.192 310.59 257.358L313.59 271.858H318.59C222.59 345.458 136.59 305.192 105.59 275.858C27.2225 385.18 72.9627 475.598 107.449 509.324C108.156 510.002 108.869 510.68 109.59 511.358C108.882 510.705 108.168 510.027 107.449 509.324C1.48817 407.598 53.8544 305.769 93.5895 267.358V262.858H99.0895Z" fill="#E5E7FF" fill-opacity="0.6"/>
<path d="M257.09 52.8583C206.29 32.8583 160.923 47.8583 144.59 57.8583C151.39 61.8583 175.09 64.1916 186.09 64.8582C219.29 68.0582 247.256 58.1916 257.09 52.8583Z" fill="#7D8CFF" fill-opacity="0.37"/>
<path fill-rule="evenodd" clip-rule="evenodd" d="M145.603 57.8325C147.254 58.6361 149.643 59.3815 152.511 60.0592C155.841 60.8461 159.768 61.5311 163.835 62.1133C171.969 63.2776 180.63 64.0264 186.12 64.3592L186.129 64.3597L186.137 64.3606C218.195 67.4505 245.352 58.3112 255.886 52.9263C206.433 33.8852 162.324 47.9759 145.603 57.8325ZM144.328 57.4318C160.77 47.3656 206.301 32.3254 257.273 52.393L258.271 52.7861L257.328 53.2978C247.419 58.6723 219.357 68.5648 186.05 65.3568C180.54 65.0226 171.856 64.2716 163.694 63.1032C159.611 62.5187 155.651 61.8288 152.281 61.0323C148.925 60.2392 146.105 59.3299 144.336 58.2892L143.618 57.8668L144.328 57.4318Z" fill="black"/>
<path fill-rule="evenodd" clip-rule="evenodd" d="M191.203 46.6493C171.05 48.8646 153.924 54.6182 144.76 59.1999L143.419 56.5166C152.922 51.765 170.395 45.9186 190.876 43.6672C211.362 41.4152 234.985 42.7467 256.703 52.4896L255.476 55.2268C234.394 45.7698 211.35 44.4346 191.203 46.6493Z" fill="black"/>
<path fill-rule="evenodd" clip-rule="evenodd" d="M256.532 54.251C211.057 36.0606 164.688 49.3219 147.27 58.1948L145.909 55.5217C163.825 46.3946 211.123 32.8559 257.647 51.4655L256.532 54.251ZM326.923 108.668C321.304 96.6188 303.179 70.1212 275.1 59.948L274.079 62.7685C301.155 72.5789 318.817 98.3459 324.229 109.99L324.256 110.048L324.288 110.104C347.608 150.815 341.094 185.656 336.634 203.494C330.975 226.131 317.176 244.649 303.163 258.413C289.226 272.104 275.162 281.008 268.949 284.498C213.927 305.778 167.228 294.681 147.215 285.495L147.168 285.473L147.119 285.455C95.8576 266.133 76.7086 213.564 73.5768 189.663L73.5697 189.609L73.5585 189.555C67.2503 159 75.1244 132.084 87.5222 110.865C99.9336 89.6224 116.84 74.1634 128.409 66.6145L126.77 64.102C114.839 71.8864 97.5954 87.6774 84.9319 109.352C72.2618 131.037 64.1379 158.685 70.6094 190.108C73.8319 214.559 93.3486 268.365 146.012 288.243C166.679 297.714 214.239 308.909 270.131 287.257L270.23 287.219L270.322 287.167C276.657 283.62 291.023 274.544 305.266 260.553C319.503 246.568 333.704 227.586 339.545 204.222C344.083 186.069 350.765 150.333 326.923 108.668Z" fill="black"/>
<path fill-rule="evenodd" clip-rule="evenodd" d="M150.885 277.814C84.6148 248.093 76.0744 185.426 80.0947 157.786L81.0843 157.93C77.1047 185.29 85.5642 247.423 151.294 276.902L150.885 277.814Z" fill="black"/>
<path fill-rule="evenodd" clip-rule="evenodd" d="M332.38 153.38C332.92 153.265 333.452 153.609 333.567 154.149C336.002 165.511 335.487 178.641 333.88 190.394C332.272 202.156 329.557 212.617 327.538 218.674C327.364 219.198 326.797 219.482 326.273 219.307C325.749 219.132 325.466 218.566 325.641 218.042C327.622 212.1 330.307 201.76 331.899 190.123C333.492 178.475 333.977 165.606 331.612 154.568C331.496 154.028 331.84 153.496 332.38 153.38Z" fill="#7D8CFF"/>
</svg>
