<svg width="711" height="909" viewBox="0 0 711 909" fill="none" xmlns="http://www.w3.org/2000/svg">
<rect width="711" height="909" fill="white"/>
<path d="M442.633 207.028C442.786 211.88 440.547 216.718 436.07 221.346C431.588 225.978 424.951 230.3 416.576 234.05C399.833 241.547 376.433 246.629 350.359 247.45C324.284 248.27 300.611 244.669 283.43 238.239C274.836 235.023 267.94 231.126 263.176 226.785C258.417 222.448 255.878 217.76 255.726 212.908C255.573 208.057 257.812 203.218 262.289 198.591C266.77 193.959 273.408 189.636 281.783 185.886C298.526 178.389 321.926 173.307 348 172.487C374.075 171.666 397.747 175.267 414.928 181.697C423.523 184.913 430.419 188.81 435.183 193.151C439.942 197.488 442.481 202.176 442.633 207.028Z" fill="#FFE680" stroke="black" stroke-width="3"/>
<path d="M421.656 207.909C421.753 211.009 420.11 214.217 416.61 217.39C413.115 220.558 407.92 223.542 401.335 226.148C388.177 231.356 369.787 234.928 349.298 235.572C328.809 236.217 310.231 233.808 296.772 229.438C290.036 227.251 284.663 224.599 280.976 221.658C277.283 218.711 275.442 215.613 275.344 212.512C275.247 209.411 276.89 206.203 280.39 203.03C283.885 199.863 289.08 196.878 295.665 194.272C308.823 189.065 327.213 185.493 347.702 184.848C368.191 184.203 386.769 186.612 400.228 190.982C406.964 193.169 412.337 195.821 416.024 198.763C419.717 201.709 421.558 204.808 421.656 207.909Z" fill="white" stroke="black" stroke-width="3"/>
<path d="M277.09 234.858L295.59 226.858C341.19 243.258 388.09 232.025 406.09 223.858C416.09 226.258 422.59 230.192 424.59 231.858C350.59 259.458 295.423 245.358 277.09 234.858Z" fill="#FFE680" fill-opacity="0.38"/>
<path d="M275.09 264.858C293.59 260.358 331.99 251.158 337.59 250.358L355.09 247.358C352.423 246.525 345.69 245.358 340.09 247.358C334.49 249.358 310.256 249.025 298.59 247.358C263.39 255.758 245.756 289.358 241.59 304.358C214.79 393.158 282.423 429.358 319.59 438.358C379.99 449.558 426.59 420.025 441.09 404.358C512.09 344.858 449.256 257.025 408.59 238.358L389.09 243.358L396.59 244.858C470.99 281.258 469.256 337.692 459.09 361.358C430.69 428.158 366.256 440.525 337.59 438.358C210.79 389.958 243.09 302.525 275.09 264.858Z" fill="#E5E7FF" fill-opacity="0.6"/>
<path d="M458.59 448.358C576.19 591.958 468.923 686.192 400.59 715.358C439.79 712.958 479.59 685.358 494.59 671.858C504.923 657.192 525.49 614.558 525.09 561.358C524.69 508.158 487.923 460.192 469.59 442.858L458.59 448.358Z" fill="#E5E7FF" fill-opacity="0.6"/>
<path d="M489.59 416.858C510.09 436.525 550.09 492.958 546.09 561.358" stroke="black"/>
<path d="M404.59 304.358C402.09 299.525 396.39 292.558 387.59 291.358M404.59 347.358C402.59 350.858 395.29 358.158 390.09 357.358M315.59 300.858C313.256 297.192 307.09 292.858 301.09 292.858M318.09 350.858C316.256 353.692 311.39 359.358 306.59 359.358" stroke="black" stroke-width="3" stroke-linecap="round"/>
<path d="M446.59 317.358C450.756 333.525 455.09 370.658 439.09 389.858" stroke="#FF86FF" stroke-width="3" stroke-linecap="round"/>
<path d="M337.59 388.858C340.256 387.858 346.79 386.358 351.59 388.358" stroke="black" stroke-width="3" stroke-linecap="round"/>
<path d="M316.142 325.906C316.408 335.394 315.084 344.004 312.746 350.251C311.577 353.375 310.163 355.884 308.589 357.616C307.016 359.346 305.316 360.27 303.555 360.319C301.795 360.369 300.046 359.542 298.378 357.902C296.71 356.261 295.157 353.836 293.814 350.782C291.13 344.676 289.325 336.154 289.058 326.666C288.792 317.178 290.116 308.567 292.454 302.321C293.624 299.196 295.038 296.688 296.612 294.956C298.184 293.225 299.885 292.301 301.645 292.252C303.405 292.203 305.155 293.029 306.822 294.669C308.491 296.31 310.043 298.735 311.386 301.789C314.071 307.895 315.876 316.418 316.142 325.906Z" fill="black" stroke="black"/>
<path d="M401.136 324.676C401.4 334.1 400.074 342.652 397.736 348.857C396.566 351.96 395.152 354.452 393.578 356.173C392.005 357.892 390.304 358.81 388.543 358.859C386.781 358.909 385.031 358.087 383.365 356.459C381.697 354.83 380.145 352.421 378.803 349.388C376.12 343.325 374.316 334.86 374.052 325.436C373.788 316.012 375.113 307.459 377.452 301.255C378.622 298.151 380.036 295.659 381.61 293.939C383.183 292.22 384.884 291.302 386.645 291.252C388.407 291.203 390.156 292.024 391.823 293.652C393.491 295.282 395.043 297.69 396.385 300.723C399.068 306.787 400.871 315.252 401.136 324.676Z" fill="black" stroke="black"/>
<path d="M248.59 431.858L252.09 426.858C244.49 416.858 235.923 402.358 232.59 396.358C198.19 411.158 169.923 474.525 160.09 504.358C129.29 669.558 250.59 738.192 315.09 751.858C461.49 775.858 530.09 664.525 546.09 605.858C572.889 501.458 511.59 425.358 477.59 400.358L457.09 426.858L458.59 436.358L466.59 439.358C548.189 502.558 527.59 604.692 507.09 647.858C475.09 706.258 418.59 711.516 388.59 718.358C320.19 733.958 259.756 684.858 239.59 660.358C157.59 558.758 209.09 468.692 245.09 436.358L242.09 431.858H248.59Z" fill="#B9C2FF" fill-opacity="0.6"/>
<path d="M183.59 661.858C108.39 543.058 184.923 434.692 232.59 395.358C238.19 409.358 247.59 420.192 251.59 423.858C291.99 469.858 355.756 471.692 382.59 466.858C428.19 462.858 465.256 420.858 478.09 400.358C503.756 415.025 554.59 468.658 552.59 565.858C550.59 663.058 476.423 720.358 439.59 736.858C385.59 761.358 258.79 780.658 183.59 661.858Z" stroke="black" stroke-width="3"/>
<path d="M376.59 747.358C396.59 744.525 439.29 734.658 450.09 717.858M161.59 570.858C162.923 601.525 178.69 670.558 231.09 701.358M174.09 497.858C179.59 476.025 196.99 426.958 222.59 411.358" stroke="#7D8CFF" stroke-width="3" stroke-linecap="round"/>
<path d="M489.59 417.358C509.59 436.692 548.99 492.158 546.59 559.358" stroke="#7D8CFF" stroke-width="4"/>
<path d="M183.59 562.358C186.256 609.358 218.59 708.758 326.59 730.358" stroke="black"/>
<path d="M301.59 244.358C290.09 249.692 263.234 265.358 256.59 274.858C235.256 305.358 210.29 377.558 287.09 426.358C316.256 443.025 391.39 458.758 458.59 388.358C465.256 377.692 476.99 350.858 470.59 328.858C468.756 305.525 444.09 252.858 406.09 240.858C408.09 238.858 409.92 240.384 416.09 236.858C420.861 234.132 424.858 232.102 426.181 231.403C426.15 231.388 426.12 231.373 426.09 231.358C426.832 231.04 426.798 231.076 426.181 231.403C449.713 242.966 497.484 284.644 493.09 351.358C492.09 370.025 476.99 415.158 432.59 448.358C402.59 465.692 328.59 488.558 272.59 441.358C250.756 425.858 207.99 378.858 221.59 316.858C226.756 297.192 244.99 254.058 276.59 236.858C282.59 240.858 296.59 244.358 301.59 244.358Z" fill="#BBC1FF" fill-opacity="0.6"/>
<path d="M471.09 467.858C467.09 466.358 460.59 467.858 462.59 452.858C463.196 448.311 465.544 446.492 468.59 446.259C473.923 446.625 486.99 451.458 496.59 467.858C508.59 488.358 514.09 505.358 522.09 525.858C528.49 542.258 519.423 556.025 514.09 560.858C511.29 533.258 491.59 495.358 482.09 479.858C479.756 476.358 474.29 469.058 471.09 467.858Z" fill="white"/>
<path d="M518.59 601.858C509.79 595.058 514.923 580.025 518.59 573.358C520.112 570.158 523.224 574.692 524.59 577.358C531.089 592.558 523.298 600.025 518.59 601.858Z" fill="white"/>
<path d="M428.09 268.858C418.89 259.658 424.256 251.692 428.09 248.858L442.09 263.358L458.59 284.858C463.79 292.058 469.09 309.525 471.09 317.358C471.09 328.558 465.423 329.692 462.59 328.858L452.09 300.358C447.923 293.692 437.29 278.058 428.09 268.858Z" fill="white"/>
<path d="M468.59 337.858C467.09 343.525 465.49 355.258 471.09 356.858C474.423 353.525 478.59 345.058 468.59 337.858Z" fill="white"/>
<path d="M484.59 452.858C480.449 449.753 473.582 445.876 468.59 446.259M468.59 446.259C465.544 446.492 463.196 448.311 462.59 452.858C460.59 467.858 467.09 466.358 471.09 467.858C474.29 469.058 479.756 476.358 482.09 479.858C491.59 495.358 511.29 533.258 514.09 560.858C519.423 556.025 528.49 542.258 522.09 525.858C514.09 505.358 508.59 488.358 496.59 467.858C486.99 451.458 473.923 446.625 468.59 446.259ZM518.59 573.358C514.923 580.025 509.79 595.058 518.59 601.858C523.298 600.025 531.089 592.558 524.59 577.358C523.224 574.692 520.112 570.158 518.59 573.358ZM428.09 248.858C424.256 251.692 418.89 259.658 428.09 268.858C437.29 278.058 447.923 293.692 452.09 300.358L462.59 328.858C465.423 329.692 471.09 328.558 471.09 317.358C469.09 309.525 463.79 292.058 458.59 284.858L442.09 263.358L428.09 248.858ZM468.59 337.858C467.09 343.525 465.49 355.258 471.09 356.858C474.423 353.525 478.59 345.058 468.59 337.858Z" stroke="black" stroke-linecap="round"/>
<path d="M209.59 501.858C204.756 524.692 201.19 577.558 225.59 606.358M245.09 666.358C257.923 681.858 293.29 714.158 332.09 719.358M500.09 613.358C492.756 636.525 473.39 685.458 454.59 695.858M524.59 489.858C531.09 508.692 542.99 552.758 538.59 578.358M517.09 644.358C512.923 654.025 502.99 673.258 496.59 672.858M472.09 386.858C469.923 394.025 464.49 408.858 460.09 410.858M476.09 296.358C479.423 310.025 485.49 340.058 483.09 350.858M237.09 322.358C236.256 339.525 240.59 379.358 264.59 401.358" stroke="#2EFFFF" stroke-width="3" stroke-linecap="round"/>
<path d="M222.09 451.358C211.423 465.525 192.69 504.958 203.09 549.358M487.09 527.358C492.256 545.358 500.09 587.258 490.09 610.858M255.09 284.358C251.09 288.192 244.69 303.358 251.09 333.358" stroke="#FF86FF" stroke-width="3" stroke-linecap="round"/>
<path d="M425.09 436.358C431.423 434.358 446.09 422.058 454.09 388.858M476.59 315.358C474.09 301.525 465.19 271.858 449.59 263.858M526.59 541.858C528.923 522.692 526.19 477.858 496.59 451.858M431.59 721.858C448.256 714.525 486.09 690.558 504.09 653.358" stroke="#FFE680" stroke-width="5" stroke-linecap="round"/>
<path d="M249.09 432.858L252.59 427.358C340.59 506.158 427.923 460.192 460.59 427.358L463.59 441.858H468.59C372.59 515.458 286.59 475.192 255.59 445.858C177.223 555.18 222.963 645.598 257.45 679.324C258.156 680.002 258.869 680.68 259.59 681.358C258.882 680.705 258.168 680.027 257.45 679.324C151.488 577.598 203.854 475.769 243.59 437.358V432.858H249.09Z" fill="#E5E7FF" fill-opacity="0.6"/>
<path d="M407.09 222.858C356.29 202.858 310.923 217.858 294.59 227.858C301.39 231.858 325.09 234.192 336.09 234.858C369.29 238.058 397.256 228.192 407.09 222.858Z" fill="#7D8CFF" fill-opacity="0.37" stroke="black"/>
<path d="M294.09 227.858C312.756 218.525 363.29 204.658 406.09 223.858" stroke="black" stroke-width="3"/>
<path d="M277.59 235.358C254.09 250.692 209.29 297.858 222.09 359.858C225.256 384.025 244.59 437.258 296.59 456.858C316.923 466.192 364.09 477.358 419.59 455.858C432.09 448.858 476.59 419.858 488.09 373.858C492.59 355.858 499.19 320.558 475.59 279.358C470.09 267.525 452.19 241.358 424.59 231.358M296.59 226.858C314.256 217.858 361.09 204.458 407.09 222.858" stroke="black" stroke-width="3"/>
<path d="M230.59 327.858C226.59 355.358 235.09 417.758 301.09 447.358" stroke="black"/>
<path d="M476.59 388.358C480.59 376.358 487.39 346.758 482.59 324.358" stroke="#7D8CFF" stroke-width="2" stroke-linecap="round"/>
</svg>
